<svg width="512" height="512" viewBox="0 0 512 512" fill="none" xmlns="http://www.w3.org/2000/svg">
<rect width="512" height="512" rx="50" fill="#F8F7F4"/>
<path d="M118.25 181.25L179 338C181.5 344 184.167 348.167 187 350.5C190 352.667 192.75 353.833 195.25 354V359C190.917 358.667 185.667 358.5 179.5 358.5C173.5 358.333 167.333 358.25 161 358.25C153.667 358.25 146.833 358.333 140.5 358.5C134.167 358.5 129 358.667 125 359V354C133.5 353.667 138.917 352.25 141.25 349.75C143.583 347.083 143.083 341.5 139.75 333L95.75 214.25L100.25 208.75L60.25 312.5C57.0833 320.833 55.1667 327.667 54.5 333C53.8333 338.333 54.25 342.5 55.75 345.5C57.25 348.5 59.75 350.667 63.25 352C66.75 353.167 71.0833 353.833 76.25 354V359C70.9167 358.667 65.75 358.5 60.75 358.5C55.75 358.333 50.75 358.25 45.75 358.25C42.0833 358.25 38.5833 358.333 35.25 358.5C32.0833 358.5 29.25 358.667 26.75 359V354C30.4167 353.167 34 351 37.5 347.5C41.1667 344 44.6667 337.917 48 329.25L105.25 181.25C107.25 181.417 109.417 181.5 111.75 181.5C114.083 181.5 116.25 181.417 118.25 181.25ZM140 287V292H65.5L68 287H140ZM406.936 182V187C401.602 187.167 397.519 187.833 394.686 189C391.852 190 389.936 192 388.936 195C388.102 197.833 387.686 202.333 387.686 208.5V332.5C387.686 338.5 388.186 343 389.186 346C390.186 349 392.019 351 394.686 352C397.519 353 401.602 353.667 406.936 354V359C402.602 358.667 397.102 358.5 390.436 358.5C383.769 358.333 377.019 358.25 370.186 358.25C362.686 358.25 355.602 358.333 348.936 358.5C342.436 358.5 337.186 358.667 333.186 359V354C338.852 353.667 343.102 353 345.936 352C348.936 351 350.936 349 351.936 346C352.936 343 353.436 338.5 353.436 332.5V196.5L355.186 196.75L293.186 359.75H289.186L223.186 198V322C223.186 330 223.686 336.25 224.686 340.75C225.686 345.083 227.852 348.25 231.186 350.25C234.686 352.083 239.936 353.333 246.936 354V359C243.769 358.667 239.686 358.5 234.686 358.5C229.686 358.333 224.936 358.25 220.436 358.25C216.436 358.25 212.352 358.333 208.186 358.5C204.186 358.5 200.852 358.667 198.186 359V354C203.686 353.333 207.769 352.083 210.436 350.25C213.269 348.417 215.102 345.417 215.936 341.25C216.936 337.083 217.436 331.333 217.436 324V208.5C217.436 202.333 216.936 197.833 215.936 195C215.102 192 213.269 190 210.436 189C207.769 187.833 203.686 187.167 198.186 187V182C200.852 182.167 204.186 182.333 208.186 182.5C212.352 182.667 216.436 182.75 220.436 182.75C226.602 182.75 232.602 182.667 238.436 182.5C244.269 182.333 249.436 182.167 253.936 182L307.686 316.25L302.186 320.75L354.436 182.75C356.936 182.75 359.519 182.75 362.186 182.75C365.019 182.75 367.686 182.75 370.186 182.75C377.019 182.75 383.769 182.667 390.436 182.5C397.102 182.333 402.602 182.167 406.936 182ZM449.23 326C454.897 326 459.564 327.667 463.23 331C466.897 334.333 468.73 338.75 468.73 344.25C468.73 349.75 466.897 354.167 463.23 357.5C459.564 360.833 454.897 362.5 449.23 362.5C443.397 362.5 438.647 360.833 434.98 357.5C431.48 354.167 429.73 349.75 429.73 344.25C429.73 338.75 431.48 334.333 434.98 331C438.647 327.667 443.397 326 449.23 326Z" fill="black"/>
</svg>
