<svg width="32" height="32" viewBox="0 0 32 32" fill="none" xmlns="http://www.w3.org/2000/svg">
<g clip-path="url(#clip0_297_4310)">
<rect width="32" height="32" rx="5" fill="#F8F7F4"/>
<path d="M7.4549 10.9795L11.2214 20.698C11.3764 21.07 11.5417 21.3283 11.7174 21.473C11.9034 21.6073 12.0739 21.6797 12.2289 21.69V22C11.9602 21.9793 11.6347 21.969 11.2524 21.969C10.8804 21.9587 10.4981 21.9535 10.1054 21.9535C9.65073 21.9535 9.22707 21.9587 8.8344 21.969C8.44173 21.969 8.1214 21.9793 7.8734 22V21.69C8.4004 21.6693 8.73623 21.5815 8.8809 21.4265C9.02557 21.2612 8.99457 20.915 8.7879 20.388L6.0599 13.0255L6.3389 12.6845L3.8589 19.117C3.66257 19.6337 3.54373 20.0573 3.5024 20.388C3.46107 20.7187 3.4869 20.977 3.5799 21.163C3.6729 21.349 3.8279 21.4833 4.0449 21.566C4.2619 21.6383 4.53057 21.6797 4.8509 21.69V22C4.52023 21.9793 4.1999 21.969 3.8899 21.969C3.5799 21.9587 3.2699 21.9535 2.9599 21.9535C2.73257 21.9535 2.51557 21.9587 2.3089 21.969C2.11257 21.969 1.9369 21.9793 1.7819 22V21.69C2.00923 21.6383 2.2314 21.504 2.4484 21.287C2.67573 21.07 2.89273 20.6928 3.0994 20.1555L6.6489 10.9795C6.7729 10.9898 6.90723 10.995 7.0519 10.995C7.19657 10.995 7.3309 10.9898 7.4549 10.9795ZM8.8034 17.536V17.846H4.1844L4.3394 17.536H8.8034ZM25.3534 11.026V11.336C25.0227 11.3463 24.7696 11.3877 24.5939 11.46C24.4182 11.522 24.2994 11.646 24.2374 11.832C24.1857 12.0077 24.1599 12.2867 24.1599 12.669V20.357C24.1599 20.729 24.1909 21.008 24.2529 21.194C24.3149 21.38 24.4286 21.504 24.5939 21.566C24.7696 21.628 25.0227 21.6693 25.3534 21.69V22C25.0847 21.9793 24.7437 21.969 24.3304 21.969C23.9171 21.9587 23.4986 21.9535 23.0749 21.9535C22.6099 21.9535 22.1707 21.9587 21.7574 21.969C21.3544 21.969 21.0289 21.9793 20.7809 22V21.69C21.1322 21.6693 21.3957 21.628 21.5714 21.566C21.7574 21.504 21.8814 21.38 21.9434 21.194C22.0054 21.008 22.0364 20.729 22.0364 20.357V11.925L22.1449 11.9405L18.3009 22.0465H18.0529L13.9609 12.018V19.706C13.9609 20.202 13.9919 20.5895 14.0539 20.8685C14.1159 21.1372 14.2502 21.3335 14.4569 21.4575C14.6739 21.5712 14.9994 21.6487 15.4334 21.69V22C15.2371 21.9793 14.9839 21.969 14.6739 21.969C14.3639 21.9587 14.0694 21.9535 13.7904 21.9535C13.5424 21.9535 13.2892 21.9587 13.0309 21.969C12.7829 21.969 12.5762 21.9793 12.4109 22V21.69C12.7519 21.6487 13.0051 21.5712 13.1704 21.4575C13.3461 21.3438 13.4597 21.1578 13.5114 20.8995C13.5734 20.6412 13.6044 20.2847 13.6044 19.83V12.669C13.6044 12.2867 13.5734 12.0077 13.5114 11.832C13.4597 11.646 13.3461 11.522 13.1704 11.46C13.0051 11.3877 12.7519 11.3463 12.4109 11.336V11.026C12.5762 11.0363 12.7829 11.0467 13.0309 11.057C13.2892 11.0673 13.5424 11.0725 13.7904 11.0725C14.1727 11.0725 14.5447 11.0673 14.9064 11.057C15.2681 11.0467 15.5884 11.0363 15.8674 11.026L19.1999 19.3495L18.8589 19.6285L22.0984 11.0725C22.2534 11.0725 22.4136 11.0725 22.5789 11.0725C22.7546 11.0725 22.9199 11.0725 23.0749 11.0725C23.4986 11.0725 23.9171 11.0673 24.3304 11.057C24.7437 11.0467 25.0847 11.0363 25.3534 11.026ZM27.9757 19.954C28.327 19.954 28.6164 20.0573 28.8437 20.264C29.071 20.4707 29.1847 20.7445 29.1847 21.0855C29.1847 21.4265 29.071 21.7003 28.8437 21.907C28.6164 22.1137 28.327 22.217 27.9757 22.217C27.614 22.217 27.3195 22.1137 27.0922 21.907C26.8752 21.7003 26.7667 21.4265 26.7667 21.0855C26.7667 20.7445 26.8752 20.4707 27.0922 20.264C27.3195 20.0573 27.614 19.954 27.9757 19.954Z" fill="black"/>
</g>
<defs>
<clipPath id="clip0_297_4310">
<rect width="32" height="32" rx="5" fill="white"/>
</clipPath>
</defs>
</svg>
