<svg width="128" height="128" viewBox="0 0 128 128" fill="none" xmlns="http://www.w3.org/2000/svg">
<g clip-path="url(#clip0_297_4300)">
<rect width="128" height="128" rx="20" fill="#F8F7F4"/>
<path d="M29.0625 44.5625L44.25 83.75C44.875 85.25 45.5417 86.2917 46.25 86.875C47 87.4167 47.6875 87.7083 48.3125 87.75V89C47.2292 88.9167 45.9167 88.875 44.375 88.875C42.875 88.8333 41.3333 88.8125 39.75 88.8125C37.9167 88.8125 36.2083 88.8333 34.625 88.875C33.0417 88.875 31.75 88.9167 30.75 89V87.75C32.875 87.6667 34.2292 87.3125 34.8125 86.6875C35.3958 86.0208 35.2708 84.625 34.4375 82.5L23.4375 52.8125L24.5625 51.4375L14.5625 77.375C13.7708 79.4583 13.2917 81.1667 13.125 82.5C12.9583 83.8333 13.0625 84.875 13.4375 85.625C13.8125 86.375 14.4375 86.9167 15.3125 87.25C16.1875 87.5417 17.2708 87.7083 18.5625 87.75V89C17.2292 88.9167 15.9375 88.875 14.6875 88.875C13.4375 88.8333 12.1875 88.8125 10.9375 88.8125C10.0208 88.8125 9.14583 88.8333 8.3125 88.875C7.52083 88.875 6.8125 88.9167 6.1875 89V87.75C7.10417 87.5417 8 87 8.875 86.125C9.79167 85.25 10.6667 83.7292 11.5 81.5625L25.8125 44.5625C26.3125 44.6042 26.8542 44.625 27.4375 44.625C28.0208 44.625 28.5625 44.6042 29.0625 44.5625ZM34.5 71V72.25H15.875L16.5 71H34.5ZM101.234 44.75V46C99.9006 46.0417 98.8797 46.2083 98.1714 46.5C97.4631 46.75 96.9839 47.25 96.7339 48C96.5256 48.7083 96.4214 49.8333 96.4214 51.375V82.375C96.4214 83.875 96.5464 85 96.7964 85.75C97.0464 86.5 97.5047 87 98.1714 87.25C98.8797 87.5 99.9006 87.6667 101.234 87.75V89C100.151 88.9167 98.7756 88.875 97.1089 88.875C95.4422 88.8333 93.7547 88.8125 92.0464 88.8125C90.1714 88.8125 88.4006 88.8333 86.7339 88.875C85.1089 88.875 83.7964 88.9167 82.7964 89V87.75C84.2131 87.6667 85.2756 87.5 85.9839 87.25C86.7339 87 87.2339 86.5 87.4839 85.75C87.7339 85 87.8589 83.875 87.8589 82.375V48.375L88.2964 48.4375L72.7964 89.1875H71.7964L55.2964 48.75V79.75C55.2964 81.75 55.4214 83.3125 55.6714 84.4375C55.9214 85.5208 56.4631 86.3125 57.2964 86.8125C58.1714 87.2708 59.4839 87.5833 61.2339 87.75V89C60.4422 88.9167 59.4214 88.875 58.1714 88.875C56.9214 88.8333 55.7339 88.8125 54.6089 88.8125C53.6089 88.8125 52.5881 88.8333 51.5464 88.875C50.5464 88.875 49.7131 88.9167 49.0464 89V87.75C50.4214 87.5833 51.4422 87.2708 52.1089 86.8125C52.8172 86.3542 53.2756 85.6042 53.4839 84.5625C53.7339 83.5208 53.8589 82.0833 53.8589 80.25V51.375C53.8589 49.8333 53.7339 48.7083 53.4839 48C53.2756 47.25 52.8172 46.75 52.1089 46.5C51.4422 46.2083 50.4214 46.0417 49.0464 46V44.75C49.7131 44.7917 50.5464 44.8333 51.5464 44.875C52.5881 44.9167 53.6089 44.9375 54.6089 44.9375C56.1506 44.9375 57.6506 44.9167 59.1089 44.875C60.5672 44.8333 61.8589 44.7917 62.9839 44.75L76.4214 78.3125L75.0464 79.4375L88.1089 44.9375C88.7339 44.9375 89.3797 44.9375 90.0464 44.9375C90.7547 44.9375 91.4214 44.9375 92.0464 44.9375C93.7547 44.9375 95.4422 44.9167 97.1089 44.875C98.7756 44.8333 100.151 44.7917 101.234 44.75ZM111.808 80.75C113.224 80.75 114.391 81.1667 115.308 82C116.224 82.8333 116.683 83.9375 116.683 85.3125C116.683 86.6875 116.224 87.7917 115.308 88.625C114.391 89.4583 113.224 89.875 111.808 89.875C110.349 89.875 109.162 89.4583 108.245 88.625C107.37 87.7917 106.933 86.6875 106.933 85.3125C106.933 83.9375 107.37 82.8333 108.245 82C109.162 81.1667 110.349 80.75 111.808 80.75Z" fill="black"/>
</g>
<rect x="0.5" y="0.5" width="127" height="127" rx="19.5" stroke="black"/>
<defs>
<clipPath id="clip0_297_4300">
<rect width="128" height="128" rx="20" fill="white"/>
</clipPath>
</defs>
</svg>
