<svg width="180" height="180" viewBox="0 0 180 180" fill="none" xmlns="http://www.w3.org/2000/svg">
<g clip-path="url(#clip0_297_4300)">
<rect width="180" height="180" rx="20" fill="#F8F7F4"/>
<path d="M41.4859 64.432L62.8699 119.608C63.7499 121.72 64.6885 123.187 65.6859 124.008C66.7419 124.771 67.7099 125.181 68.5899 125.24V127C67.0645 126.883 65.2165 126.824 63.0459 126.824C60.9339 126.765 58.7632 126.736 56.5339 126.736C53.9525 126.736 51.5472 126.765 49.3179 126.824C47.0885 126.824 45.2699 126.883 43.8619 127V125.24C46.8539 125.123 48.7605 124.624 49.5819 123.744C50.4032 122.805 50.2272 120.84 49.0539 117.848L33.5659 76.048L35.1499 74.112L21.0699 110.632C19.9552 113.565 19.2805 115.971 19.0459 117.848C18.8112 119.725 18.9579 121.192 19.4859 122.248C20.0139 123.304 20.8939 124.067 22.1259 124.536C23.3579 124.947 24.8832 125.181 26.7019 125.24V127C24.8245 126.883 23.0059 126.824 21.2459 126.824C19.4859 126.765 17.7259 126.736 15.9659 126.736C14.6752 126.736 13.4432 126.765 12.2699 126.824C11.1552 126.824 10.1579 126.883 9.27787 127V125.24C10.5685 124.947 11.8299 124.184 13.0619 122.952C14.3525 121.72 15.5845 119.579 16.7579 116.528L36.9099 64.432C37.6139 64.4907 38.3765 64.52 39.1979 64.52C40.0192 64.52 40.7819 64.4907 41.4859 64.432ZM49.1419 101.656V103.416H22.9179L23.7979 101.656H49.1419ZM143.103 64.696V66.456C141.226 66.5147 139.789 66.7493 138.791 67.16C137.794 67.512 137.119 68.216 136.767 69.272C136.474 70.2693 136.327 71.8533 136.327 74.024V117.672C136.327 119.784 136.503 121.368 136.855 122.424C137.207 123.48 137.853 124.184 138.791 124.536C139.789 124.888 141.226 125.123 143.103 125.24V127C141.578 126.883 139.642 126.824 137.295 126.824C134.949 126.765 132.573 126.736 130.167 126.736C127.527 126.736 125.034 126.765 122.687 126.824C120.399 126.824 118.551 126.883 117.143 127V125.24C119.138 125.123 120.634 124.888 121.631 124.536C122.687 124.184 123.391 123.48 123.743 122.424C124.095 121.368 124.271 119.784 124.271 117.672V69.8L124.887 69.888L103.063 127.264H101.655L78.4232 70.328V113.976C78.4232 116.792 78.5992 118.992 78.9512 120.576C79.3032 122.101 80.0659 123.216 81.2392 123.92C82.4712 124.565 84.3192 125.005 86.7832 125.24V127C85.6685 126.883 84.2312 126.824 82.4712 126.824C80.7112 126.765 79.0392 126.736 77.4552 126.736C76.0472 126.736 74.6099 126.765 73.1432 126.824C71.7352 126.824 70.5619 126.883 69.6232 127V125.24C71.5592 125.005 72.9965 124.565 73.9352 123.92C74.9325 123.275 75.5779 122.219 75.8712 120.752C76.2232 119.285 76.3992 117.261 76.3992 114.68V74.024C76.3992 71.8533 76.2232 70.2693 75.8712 69.272C75.5779 68.216 74.9325 67.512 73.9352 67.16C72.9965 66.7493 71.5592 66.5147 69.6232 66.456V64.696C70.5619 64.7547 71.7352 64.8133 73.1432 64.872C74.6099 64.9307 76.0472 64.96 77.4552 64.96C79.6259 64.96 81.7379 64.9307 83.7912 64.872C85.8445 64.8133 87.6632 64.7547 89.2472 64.696L108.167 111.952L106.231 113.536L124.623 64.96C125.503 64.96 126.413 64.96 127.351 64.96C128.349 64.96 129.287 64.96 130.167 64.96C132.573 64.96 134.949 64.9307 137.295 64.872C139.642 64.8133 141.578 64.7547 143.103 64.696ZM157.991 115.384C159.986 115.384 161.628 115.971 162.919 117.144C164.21 118.317 164.855 119.872 164.855 121.808C164.855 123.744 164.21 125.299 162.919 126.472C161.628 127.645 159.986 128.232 157.991 128.232C155.938 128.232 154.266 127.645 152.975 126.472C151.743 125.299 151.127 123.744 151.127 121.808C151.127 119.872 151.743 118.317 152.975 117.144C154.266 115.971 155.938 115.384 157.991 115.384Z" fill="black"/>
</g>
<defs>
<clipPath id="clip0_297_4300">
<rect width="180" height="180" rx="20" fill="white"/>
</clipPath>
</defs>
</svg>
